<svg xmlns="http://www.w3.org/2000/svg" fill="none" viewBox="0 0 200 154">
  <path fill="url(#a)" d="M0 61.037c0-3.63 2.929-6.574 6.542-6.574s6.542 2.943 6.542 6.574v28.17c0 3.63-2.929 6.574-6.542 6.574S0 92.838 0 89.207z"/>
  <path fill="url(#b)" d="M186.916 61.037c0-3.63 2.929-6.574 6.542-6.574S200 57.406 200 61.037v28.17c0 3.63-2.929 6.574-6.542 6.574s-6.542-2.943-6.542-6.574z"/>
  <path fill="url(#c)" d="M18.692 40.378c0-3.63 2.929-6.573 6.542-6.573s6.542 2.943 6.542 6.573v22.537c0 3.63-2.93 6.573-6.542 6.573-3.613 0-6.542-2.943-6.542-6.573z"/>
  <path fill="url(#d)" d="M18.692 113.622c0 3.63 2.929 6.573 6.542 6.573s6.542-2.943 6.542-6.573V89.207c0-3.63-2.93-6.573-6.542-6.573-3.613 0-6.542 2.943-6.542 6.573z"/>
  <path fill="url(#e)" d="M37.383 27.232c0-3.63 2.93-6.573 6.542-6.573 3.613 0 6.542 2.942 6.542 6.573v28.17c0 3.63-2.929 6.574-6.542 6.574s-6.542-2.943-6.542-6.574z"/>
  <path fill="url(#f)" d="M37.383 126.768c0 3.631 2.93 6.573 6.542 6.573 3.613 0 6.542-2.942 6.542-6.573V96.719c0-3.63-2.929-6.573-6.542-6.573s-6.542 2.943-6.542 6.573z"/>
  <path fill="url(#g)" d="M56.075 17.842c0-3.63 2.929-6.574 6.542-6.574s6.542 2.943 6.542 6.573v24.415c0 3.63-2.93 6.573-6.542 6.573-3.613 0-6.542-2.943-6.542-6.573z"/>
  <path fill="url(#h)" d="M56.075 136.159c0 3.63 2.929 6.573 6.542 6.573s6.542-2.943 6.542-6.573v-26.293c0-3.63-2.93-6.573-6.542-6.573-3.613 0-6.542 2.943-6.542 6.573z"/>
  <path fill="url(#i)" d="M74.766 10.33c0-3.631 2.93-6.574 6.542-6.574 3.613 0 6.542 2.943 6.542 6.573v20.659c0 3.63-2.928 6.573-6.542 6.573s-6.542-2.943-6.542-6.573z"/>
  <path fill="url(#j)" d="M74.766 143.671c0 3.63 2.93 6.573 6.542 6.573 3.613 0 6.542-2.943 6.542-6.573v-22.537c0-3.63-2.928-6.573-6.542-6.573s-6.542 2.943-6.542 6.573z"/>
  <path fill="url(#k)" d="M130.841 17.842c0-3.63 2.929-6.574 6.542-6.574s6.542 2.943 6.542 6.573v24.415c0 3.63-2.929 6.573-6.542 6.573s-6.542-2.943-6.542-6.573z"/>
  <path fill="url(#l)" d="M130.841 136.159c0 3.63 2.929 6.573 6.542 6.573s6.542-2.943 6.542-6.573v-26.293c0-3.63-2.929-6.573-6.542-6.573s-6.542 2.943-6.542 6.573z"/>
  <path fill="url(#m)" d="M112.15 10.33c0-3.631 2.929-6.574 6.542-6.574s6.542 2.943 6.542 6.573v20.659c0 3.63-2.929 6.573-6.542 6.573s-6.542-2.943-6.542-6.573z"/>
  <path fill="url(#n)" d="M112.15 143.671c0 3.63 2.929 6.573 6.542 6.573s6.542-2.943 6.542-6.573v-22.537c0-3.63-2.929-6.573-6.542-6.573s-6.542 2.943-6.542 6.573z"/>
  <path fill="url(#o)" d="M93.458 6.573C93.458 2.943 96.387 0 100 0s6.542 2.943 6.542 6.573v18.78c0 3.63-2.929 6.574-6.542 6.574s-6.542-2.943-6.542-6.573z"/>
  <path fill="url(#p)" d="M93.458 147.427c0 3.63 2.929 6.573 6.542 6.573s6.542-2.943 6.542-6.573v-20.659c0-3.63-2.929-6.573-6.542-6.573s-6.542 2.943-6.542 6.573z"/>
  <path fill="url(#q)" d="M149.533 27.232c0-3.63 2.929-6.573 6.542-6.573s6.542 2.942 6.542 6.573v28.17c0 3.63-2.929 6.574-6.542 6.574s-6.542-2.943-6.542-6.574z"/>
  <path fill="url(#r)" d="M149.533 126.768c0 3.631 2.929 6.573 6.542 6.573s6.542-2.942 6.542-6.573V96.719c0-3.63-2.929-6.573-6.542-6.573s-6.542 2.943-6.542 6.573z"/>
  <path fill="url(#s)" d="M168.224 40.378c0-3.63 2.929-6.573 6.542-6.573s6.542 2.943 6.542 6.573v22.537c0 3.63-2.929 6.573-6.542 6.573s-6.542-2.943-6.542-6.573z"/>
  <path fill="url(#t)" d="M168.224 113.622c0 3.63 2.929 6.573 6.542 6.573s6.542-2.943 6.542-6.573V89.207c0-3.63-2.929-6.573-6.542-6.573s-6.542 2.943-6.542 6.573z"/>
  <path fill="url(#u)" d="M84.112 76.061c0-8.816 7.113-15.963 15.888-15.963s15.888 7.147 15.888 15.963S108.775 92.024 100 92.024s-15.888-7.147-15.888-15.963"/>
  <defs>
    <linearGradient id="a" x1="100" x2="100" y1="0" y2="154" gradientUnits="userSpaceOnUse">
      <stop stop-color="#dc2626"/>
      <stop offset="1" stop-color="#ef4444"/>
    </linearGradient>
    <linearGradient id="b" x1="100" x2="100" y1="0" y2="154" gradientUnits="userSpaceOnUse">
      <stop stop-color="#dc2626"/>
      <stop offset="1" stop-color="#ef4444"/>
    </linearGradient>
    <linearGradient id="c" x1="100" x2="100" y1="0" y2="154" gradientUnits="userSpaceOnUse">
      <stop stop-color="#dc2626"/>
      <stop offset="1" stop-color="#ef4444"/>
    </linearGradient>
    <linearGradient id="d" x1="100" x2="100" y1="0" y2="154" gradientUnits="userSpaceOnUse">
      <stop stop-color="#dc2626"/>
      <stop offset="1" stop-color="#ef4444"/>
    </linearGradient>
    <linearGradient id="e" x1="100" x2="100" y1="0" y2="154" gradientUnits="userSpaceOnUse">
      <stop stop-color="#dc2626"/>
      <stop offset="1" stop-color="#ef4444"/>
    </linearGradient>
    <linearGradient id="f" x1="100" x2="100" y1="0" y2="154" gradientUnits="userSpaceOnUse">
      <stop stop-color="#dc2626"/>
      <stop offset="1" stop-color="#ef4444"/>
    </linearGradient>
    <linearGradient id="g" x1="100" x2="100" y1="0" y2="154" gradientUnits="userSpaceOnUse">
      <stop stop-color="#dc2626"/>
      <stop offset="1" stop-color="#ef4444"/>
    </linearGradient>
    <linearGradient id="h" x1="100" x2="100" y1="0" y2="154" gradientUnits="userSpaceOnUse">
      <stop stop-color="#dc2626"/>
      <stop offset="1" stop-color="#ef4444"/>
    </linearGradient>
    <linearGradient id="i" x1="100" x2="100" y1="0" y2="154" gradientUnits="userSpaceOnUse">
      <stop stop-color="#dc2626"/>
      <stop offset="1" stop-color="#ef4444"/>
    </linearGradient>
    <linearGradient id="j" x1="100" x2="100" y1="0" y2="154" gradientUnits="userSpaceOnUse">
      <stop stop-color="#dc2626"/>
      <stop offset="1" stop-color="#ef4444"/>
    </linearGradient>
    <linearGradient id="k" x1="100" x2="100" y1="0" y2="154" gradientUnits="userSpaceOnUse">
      <stop stop-color="#dc2626"/>
      <stop offset="1" stop-color="#ef4444"/>
    </linearGradient>
    <linearGradient id="l" x1="100" x2="100" y1="0" y2="154" gradientUnits="userSpaceOnUse">
      <stop stop-color="#dc2626"/>
      <stop offset="1" stop-color="#ef4444"/>
    </linearGradient>
    <linearGradient id="m" x1="100" x2="100" y1="0" y2="154" gradientUnits="userSpaceOnUse">
      <stop stop-color="#dc2626"/>
      <stop offset="1" stop-color="#ef4444"/>
    </linearGradient>
    <linearGradient id="n" x1="100" x2="100" y1="0" y2="154" gradientUnits="userSpaceOnUse">
      <stop stop-color="#dc2626"/>
      <stop offset="1" stop-color="#ef4444"/>
    </linearGradient>
    <linearGradient id="o" x1="100" x2="100" y1="0" y2="154" gradientUnits="userSpaceOnUse">
      <stop stop-color="#dc2626"/>
      <stop offset="1" stop-color="#ef4444"/>
    </linearGradient>
    <linearGradient id="p" x1="100" x2="100" y1="0" y2="154" gradientUnits="userSpaceOnUse">
      <stop stop-color="#dc2626"/>
      <stop offset="1" stop-color="#ef4444"/>
    </linearGradient>
    <linearGradient id="q" x1="100" x2="100" y1="0" y2="154" gradientUnits="userSpaceOnUse">
      <stop stop-color="#dc2626"/>
      <stop offset="1" stop-color="#ef4444"/>
    </linearGradient>
    <linearGradient id="r" x1="100" x2="100" y1="0" y2="154" gradientUnits="userSpaceOnUse">
      <stop stop-color="#dc2626"/>
      <stop offset="1" stop-color="#ef4444"/>
    </linearGradient>
    <linearGradient id="s" x1="100" x2="100" y1="0" y2="154" gradientUnits="userSpaceOnUse">
      <stop stop-color="#dc2626"/>
      <stop offset="1" stop-color="#ef4444"/>
    </linearGradient>
    <linearGradient id="t" x1="100" x2="100" y1="0" y2="154" gradientUnits="userSpaceOnUse">
      <stop stop-color="#dc2626"/>
      <stop offset="1" stop-color="#ef4444"/>
    </linearGradient>
    <linearGradient id="u" x1="100" x2="100" y1="0" y2="154" gradientUnits="userSpaceOnUse">
      <stop stop-color="#dc2626"/>
      <stop offset="1" stop-color="#ef4444"/>
    </linearGradient>
  </defs>
</svg>
